<mxfile host="app.diagrams.net" modified="2023-10-24T14:14:49.026Z" agent="Mozilla/5.0 (Macintosh; Intel Mac OS X 10_15_7) AppleWebKit/537.36 (KHTML, like Gecko) Chrome/116.0.0.0 Safari/537.36" version="22.0.6" etag="U_s2mmzPuR5ocoojo91E" type="github">
  <diagram name="Page-1" id="wfENI51AvKtfhmlLP-qF">
    <mxGraphModel>
      <root>
        <mxCell id="0" />
        <mxCell id="1" parent="0" />
      </root>
    </mxGraphModel>
  </diagram>
</mxfile>
